<?xml version="1.0" encoding="UTF-8" standalone="no"?><!-- Generator: Gravit.io --><svg xmlns="http://www.w3.org/2000/svg" xmlns:xlink="http://www.w3.org/1999/xlink" style="isolation:isolate" viewBox="0 0 200 200" width="200pt" height="200pt"><defs><clipPath id="_clipPath_bkeS7JGqR08A75692gcKZVJ8g3dVQdoH"><rect width="200" height="200"/></clipPath></defs><g clip-path="url(#_clipPath_bkeS7JGqR08A75692gcKZVJ8g3dVQdoH)"><mask id="_mask_b4FDwQ0AQdSkYIxM38ZpH0jL2a2pyL1d"><line x1="190.401" y1="183.512" x2="190.521" y2="184.009" fill="white" stroke="none"/></mask><line x1="190.401" y1="183.512" x2="190.521" y2="184.009" mask="url(#_mask_b4FDwQ0AQdSkYIxM38ZpH0jL2a2pyL1d)" vector-effect="non-scaling-stroke" stroke-width="4" stroke="rgb(82,255,82)" stroke-linejoin="miter" stroke-linecap="square" stroke-miterlimit="3"/><mask id="_mask_FtSl0uAZIVIAevStJDcGPMx5HDvyvbbW"><line x1="190.521" y1="184.009" x2="190.558" y2="184.164" fill="white" stroke="none"/></mask><line x1="190.521" y1="184.009" x2="190.558" y2="184.164" mask="url(#_mask_FtSl0uAZIVIAevStJDcGPMx5HDvyvbbW)" vector-effect="non-scaling-stroke" stroke-width="4" stroke="rgb(82,255,82)" stroke-linejoin="miter" stroke-linecap="square" stroke-miterlimit="3"/><mask id="_mask_qDiyfTIjKIrrwWCOfMVMH1NoxIei2I6H"><line x1="190.558" y1="184.164" x2="190.687" y2="184.7" fill="white" stroke="none"/></mask><line x1="190.558" y1="184.164" x2="190.687" y2="184.7" mask="url(#_mask_qDiyfTIjKIrrwWCOfMVMH1NoxIei2I6H)" vector-effect="non-scaling-stroke" stroke-width="4" stroke="rgb(82,255,82)" stroke-linejoin="miter" stroke-linecap="square" stroke-miterlimit="3"/><mask id="_mask_kTCBlyEV1OYbFsBjv7dmWwJ1964hm0fE"><line x1="190.687" y1="184.7" x2="190.881" y2="185.505" fill="white" stroke="none"/></mask><line x1="190.687" y1="184.7" x2="190.881" y2="185.505" mask="url(#_mask_kTCBlyEV1OYbFsBjv7dmWwJ1964hm0fE)" vector-effect="non-scaling-stroke" stroke-width="4" stroke="rgb(82,255,82)" stroke-linejoin="miter" stroke-linecap="square" stroke-miterlimit="3"/><mask id="_mask_bvHZSLqySme5RnyXyZh1d02kDeMCUwMA"><path d=" M 190.881 185.505 L 191 186 L 190.154 185.752" fill="white" stroke="none"/></mask><path d=" M 190.881 185.505 L 191 186 L 190.154 185.752" fill="none"/><path d=" M 190.881 185.505 L 191 186 L 190.154 185.752" fill="none" mask="url(#_mask_bvHZSLqySme5RnyXyZh1d02kDeMCUwMA)" vector-effect="non-scaling-stroke" stroke-width="4" stroke="rgb(82,255,82)" stroke-linejoin="miter" stroke-linecap="square" stroke-miterlimit="3"/><mask id="_mask_QzNNlAw2U43mZ9JSuLUyeBTYgC6cAoIN"><line x1="188.933" y1="177.41" x2="189.8" y2="181.012" fill="white" stroke="none"/></mask><line x1="188.933" y1="177.41" x2="189.8" y2="181.012" mask="url(#_mask_QzNNlAw2U43mZ9JSuLUyeBTYgC6cAoIN)" vector-effect="non-scaling-stroke" stroke-width="4" stroke="rgb(82,255,82)" stroke-linejoin="miter" stroke-linecap="square" stroke-miterlimit="3"/><mask id="_mask_S7JOpt7M7MxmFuolDg9UmKNhxOktTda0"><line x1="189.8" y1="181.012" x2="190.185" y2="182.613" fill="white" stroke="none"/></mask><line x1="189.8" y1="181.012" x2="190.185" y2="182.613" mask="url(#_mask_S7JOpt7M7MxmFuolDg9UmKNhxOktTda0)" vector-effect="non-scaling-stroke" stroke-width="4" stroke="rgb(82,255,82)" stroke-linejoin="miter" stroke-linecap="square" stroke-miterlimit="3"/><mask id="_mask_pQ3Bx5LqQv2pyu7S5USCMQ5JHPrnKpFP"><line x1="190.185" y1="182.613" x2="190.401" y2="183.512" fill="white" stroke="none"/></mask><line x1="190.185" y1="182.613" x2="190.401" y2="183.512" mask="url(#_mask_pQ3Bx5LqQv2pyu7S5USCMQ5JHPrnKpFP)" vector-effect="non-scaling-stroke" stroke-width="4" stroke="rgb(82,255,82)" stroke-linejoin="miter" stroke-linecap="square" stroke-miterlimit="3"/><mask id="_mask_Y9gaKrRe8LxL15hzBSb8WKdqJV4pTmmj"><path d=" M 27.915 169.288 C 27.581 168.942 27.25 168.592 26.921 168.24" fill="white" stroke="none"/></mask><path d=" M 27.915 169.288 C 27.581 168.942 27.25 168.592 26.921 168.24" fill="none"/><path d=" M 27.915 169.288 C 27.581 168.942 27.25 168.592 26.921 168.24" fill="none" mask="url(#_mask_Y9gaKrRe8LxL15hzBSb8WKdqJV4pTmmj)" vector-effect="non-scaling-stroke" stroke-width="6" stroke="rgb(83,255,238)" stroke-linejoin="miter" stroke-linecap="square" stroke-miterlimit="3"/><mask id="_mask_coEIHx2rmnXFrg6NEjIB11yR9MfAxnbW"><path d=" M 19.839 159.815 C 7.374 143.187 0 122.549 0 100.205 C 0 45.126 44.808 0.41 100 0.41 C 155.191 0.41 200 45.126 200 100.205 C 200 128.618 188.076 154.273 168.939 172.44" fill="white" stroke="none"/></mask><path d=" M 19.839 159.815 C 7.374 143.187 0 122.549 0 100.205 C 0 45.126 44.808 0.41 100 0.41 C 155.191 0.41 200 45.126 200 100.205 C 200 128.618 188.076 154.273 168.939 172.44" fill="none"/><path d=" M 19.839 159.815 C 7.374 143.187 0 122.549 0 100.205 C 0 45.126 44.808 0.41 100 0.41 C 155.191 0.41 200 45.126 200 100.205 C 200 128.618 188.076 154.273 168.939 172.44" fill="none" mask="url(#_mask_coEIHx2rmnXFrg6NEjIB11yR9MfAxnbW)" vector-effect="non-scaling-stroke" stroke-width="6" stroke="rgb(83,255,238)" stroke-linejoin="miter" stroke-linecap="square" stroke-miterlimit="3"/><mask id="_mask_ZGJCXAPN5iybsn7AxTPDeIXQvf3q3zpZ"><path d=" M 168.939 172.44 C 168.831 172.546 168.721 172.65 168.611 172.754" fill="white" stroke="none"/></mask><path d=" M 168.939 172.44 C 168.831 172.546 168.721 172.65 168.611 172.754" fill="none"/><path d=" M 168.939 172.44 C 168.831 172.546 168.721 172.65 168.611 172.754" fill="none" mask="url(#_mask_ZGJCXAPN5iybsn7AxTPDeIXQvf3q3zpZ)" vector-effect="non-scaling-stroke" stroke-width="6" stroke="rgb(83,255,238)" stroke-linejoin="miter" stroke-linecap="square" stroke-miterlimit="3"/><mask id="_mask_GtFvEKFbV53VYsji14NlbZchPwgrh55h"><path d=" M 168.611 172.754 C 168.36 172.995 168.106 173.232 167.85 173.468" fill="white" stroke="none"/></mask><path d=" M 168.611 172.754 C 168.36 172.995 168.106 173.232 167.85 173.468" fill="none"/><path d=" M 168.611 172.754 C 168.36 172.995 168.106 173.232 167.85 173.468" fill="none" mask="url(#_mask_GtFvEKFbV53VYsji14NlbZchPwgrh55h)" vector-effect="non-scaling-stroke" stroke-width="6" stroke="rgb(83,255,238)" stroke-linejoin="miter" stroke-linecap="square" stroke-miterlimit="3"/></g></svg>